<?xml version="1.0" encoding="UTF-8" standalone="no"?>
<svg
   xmlns:dc="http://purl.org/dc/elements/1.1/"
   xmlns:cc="http://creativecommons.org/ns#"
   xmlns:rdf="http://www.w3.org/1999/02/22-rdf-syntax-ns#"
   xmlns:svg="http://www.w3.org/2000/svg"
   xmlns="http://www.w3.org/2000/svg"
   xmlns:sodipodi="http://sodipodi.sourceforge.net/DTD/sodipodi-0.dtd"
   xmlns:inkscape="http://www.inkscape.org/namespaces/inkscape"
   version="1.0"
   width="193.000000pt"
   height="75.000000pt"
   viewBox="0 0 193.000000 75.000000"
   preserveAspectRatio="xMidYMid meet"
   id="svg10"
   sodipodi:docname="logo.svg"
   inkscape:version="0.92.3 (2405546, 2018-03-11)">
  <defs
     id="defs14" />
  <sodipodi:namedview
     pagecolor="#ffffff"
     bordercolor="#666666"
     borderopacity="1"
     objecttolerance="10"
     gridtolerance="10"
     guidetolerance="10"
     inkscape:pageopacity="0"
     inkscape:pageshadow="2"
     inkscape:window-width="1920"
     inkscape:window-height="1001"
     id="namedview12"
     showgrid="false"
     inkscape:zoom="2.4559585"
     inkscape:cx="229.63552"
     inkscape:cy="61.026726"
     inkscape:window-x="-9"
     inkscape:window-y="41"
     inkscape:window-maximized="1"
     inkscape:current-layer="svg10" />
  <metadata
     id="metadata2">
Created by potrace 1.13, written by Peter Selinger 2001-2015
<rdf:RDF>
  <cc:Work
     rdf:about="">
    <dc:format>image/svg+xml</dc:format>
    <dc:type
       rdf:resource="http://purl.org/dc/dcmitype/StillImage" />
  </cc:Work>
</rdf:RDF>
</metadata>
  <g
     id="g139">
    <g
       style="fill:#a3cd39;fill-opacity:1"
       transform="matrix(0.18612754,0,0,0.18612754,87.490511,48.219493)"
       id="g1824">
      <path
         style="opacity:1;fill:#a3cd39;fill-opacity:1;stroke:none;stroke-width:5.65685415;stroke-linecap:square;stroke-linejoin:miter;stroke-miterlimit:4;stroke-dasharray:none;stroke-opacity:1;paint-order:markers stroke fill"
         d="m -397.39788,104.30594 v -3.18198 h 6.71752 6.71751 V 17.331808 -66.460346 h -6.71751 -6.71752 v -3.18198 -3.181981 h 32.41114 32.41113 l 1.18737,4.919432 c 0.65305,2.705687 2.13704,7.82555 3.29776,11.377473 1.16072,3.551923 2.11039,6.945895 2.11039,7.54216 0,0.596264 1.11369,4.412341 2.47487,8.480169 1.36118,4.067829 2.47488,7.788272 2.47488,8.267651 0,0.479378 1.11369,4.307632 2.47487,8.507231 1.36118,4.199599 2.47487,8.040388 2.47487,8.535087 0,0.494699 1.1137,4.335488 2.47488,8.5350869 1.36118,4.1995948 2.47487,7.9955632 2.47487,8.4354756 0,0.4399123 1.11369,4.2358807 2.47487,8.4354725 1.36119,4.199599 2.47488,8.069962 2.47488,8.600809 0,0.530839 0.76737,3.278804 1.70526,6.106581 0.9379,2.827776 2.39503,7.730883 3.23807,10.895794 0.84304,3.164911 1.9517,6.972886 2.46368,8.462159 l 0.93089,2.707773 1.01023,-2.451751 c 0.55562,-1.34846 1.73744,-4.838237 2.62626,-7.755052 0.88882,-2.916815 2.59172,-8.167083 3.78422,-11.667262 1.1925,-3.500178 2.40481,-7.477654 2.69404,-8.838835 0.28922,-1.36118 1.36024,-5.020458 2.38004,-8.1317275 1.01979,-3.1112699 3.00191,-9.3161318 4.4047,-13.7885822 1.40279,-4.4724503 3.55943,-11.3137083 4.79254,-15.2027953 1.2331,-3.889088 3.43197,-10.889445 4.88639,-15.55635 1.45441,-4.666904 3.29491,-10.394469 4.08999,-12.727922 0.79509,-2.333452 2.01701,-6.310928 2.71538,-8.838834 0.69837,-2.527907 2.04585,-6.823581 2.9944,-9.545942 l 1.72463,-4.949747 31.93397,-0.183983 31.93397,-0.183982 v 3.16358 3.163581 l -6.8943,0.202382 -6.89429,0.202383 -0.17967,83.615376 -0.17968,83.615376 h 7.07397 7.07397 v 3.18198 3.18198 h -41.0122 -41.01219 v -3.18198 -3.18198 h 11.31371 11.31371 V 21.220895 c 0,-43.946686 -0.26727,-79.903066 -0.59393,-79.903066 -0.32666,0 -0.99344,1.352342 -1.48172,3.005204 -1.14353,3.870856 -5.87152,19.125786 -13.09452,42.24963 -2.42908,7.7765055 -6.14566,19.7551206 -9.65328,31.112698 -1.14103,3.694633 -3.21582,10.376792 -4.61065,14.849242 -1.39483,4.472451 -3.57154,11.472808 -4.83712,15.556349 -4.90943,15.840776 -7.67246,24.602105 -9.36591,29.698485 -0.96921,2.916816 -2.18999,7.02418 -2.71284,9.127469 -0.52285,2.103296 -1.74795,6.239871 -2.72245,9.192388 -0.97451,2.952524 -2.12115,6.731166 -2.5481,8.396986 l -0.77627,3.02877 -7.47826,-0.20034 -7.47825,-0.20034 -1.72573,-4.94975 c -0.94916,-2.72236 -2.16665,-6.699836 -2.70553,-8.838834 -0.53888,-2.138998 -1.79051,-5.938162 -2.78138,-8.442579 -0.99088,-2.504424 -1.8016,-5.139825 -1.8016,-5.856442 0,-0.716625 -0.94014,-3.758718 -2.08921,-6.760217 -1.14907,-3.001498 -2.24703,-6.361747 -2.43991,-7.467224 -0.19288,-1.105477 -1.2841,-4.764754 -2.42493,-8.131728 -1.14083,-3.366974 -3.27938,-9.940146 -4.75234,-14.607051 -1.47295,-4.666905 -3.69614,-11.667262 -4.94042,-15.556349 -1.24428,-3.889088 -3.4563,-10.889445 -4.91559,-15.556349 -1.45929,-4.6669052 -3.72779,-11.53993355 -5.04111,-15.2733958 -1.31333,-3.733463 -2.39882,-7.3927402 -2.4122,-8.1317282 -0.0134,-0.738987 -0.96681,-3.730099 -2.11872,-6.646915 -1.15192,-2.916815 -2.09556,-5.773091 -2.09699,-6.34728 -10e-4,-0.574188 -1.16001,-4.551664 -2.57464,-8.838835 -5.24517,-15.896092 -7.53725,-22.651862 -7.78258,-22.938725 -0.13859,-0.162045 -0.25198,35.396587 -0.25198,79.01918 v 79.313812 h 10.60661 10.6066 v 3.18198 3.18198 h -21.56676 -21.56676 z"
         id="path1794"
         inkscape:connector-curvature="0" />
      <path
         style="opacity:1;fill:#a3cd39;fill-opacity:1;stroke:none;stroke-width:5.65685415;stroke-linecap:square;stroke-linejoin:miter;stroke-miterlimit:4;stroke-dasharray:none;stroke-opacity:1;paint-order:markers stroke fill"
         d="m -154.86025,109.84397 c -3.3162,-0.68891 -12.72792,-4.57824 -12.72792,-5.25972 0,-0.37375 -1.1137,-1.33665 -2.47488,-2.13977 -1.36118,-0.80312 -2.47487,-1.86711 -2.47487,-2.36444 0,-0.497332 -0.49828,-1.317773 -1.10728,-1.823199 -2.7284,-2.264368 -5.20732,-10.494087 -5.20665,-17.285423 4.7e-4,-4.820241 1.70169,-11.573527 3.46533,-13.756281 0.79995,-0.990037 1.8192,-2.516014 2.26502,-3.391059 0.44582,-0.875044 1.0476,-1.59099 1.33729,-1.59099 0.28968,0 1.78974,-1.055243 3.33346,-2.344984 1.54372,-1.289741 4.35806,-2.925448 6.25409,-3.634904 1.89603,-0.709456 3.76552,-1.522405 4.15443,-1.806552 0.38891,-0.284147 2.45719,-0.897575 4.59619,-1.363173 8.00399,-1.742237 22.3905,-5.826696 25.63262,-7.277329 l 3.35876,-1.502821 V 33.504021 c 0,-13.132714 -0.68672,-16.659187 -3.97318,-20.403177 -2.41808,-2.754708 -2.59157,-2.822761 -7.87674,-3.08965 -8.73676,-0.4411867 -10.57092,1.196773 -17.30325,15.452342 -1.74482,3.694632 -3.6443,7.831207 -4.22106,9.192388 -3.87305,9.14055 -3.32731,8.485281 -7.06694,8.485281 h -3.39945 V 27.327369 11.513532 l 3.0052,-1.135148 c 1.65287,-0.6243314 6.82358,-2.1490153 11.49049,-3.3881863 7.77968,-2.0656838 9.42609,-2.2576263 19.79899,-2.3082105 7.24511,-0.035331 12.458,0.2711224 14.49569,0.8521685 6.96933,1.9873014 13.51824,4.6415323 15.12392,6.1296263 0.9308,0.862637 2.17923,1.75526 2.77429,1.983606 0.59506,0.228346 2.459413,3.194436 4.143006,6.591309 l 3.061073,6.176135 0.230552,38.061672 0.230559,38.061666 h 4.188858 c 4.18289,0 4.188865,0.003 4.188865,2.12132 v 2.12133 h -18.031223 -18.03122 v -7.46636 c 0,-4.797507 -0.25276,-7.31014 -0.70711,-7.029334 -0.38891,0.24036 -0.70711,1.031902 -0.70711,1.758992 0,0.727082 -0.40965,1.742452 -0.91034,2.256363 -0.5007,0.513919 -1.5921,2.048086 -2.42535,3.409266 -4.05983,6.632093 -10.71555,10.012323 -20.29076,10.305043 -3.53407,0.10803 -7.22108,0.0312 -8.19335,-0.17082 z m 22.46716,-9.313 c 2.13803,-1.522411 4.50055,-6.166441 6.35316,-12.488485 1.0854,-3.70391 2.22789,-37.830212 1.26649,-37.830212 -0.26342,0 -2.1291,0.747472 -4.14595,1.661048 -2.01685,0.913577 -4.48898,1.860917 -5.49364,2.1052 -1.00465,0.244283 -3.26865,1.25011 -5.03111,2.23517 -2.67003,1.492305 -3.45167,2.436959 -4.68657,5.663937 -2.09587,5.476854 -3.19924,14.995547 -2.74606,23.689984 0.65132,12.495729 3.44293,17.451228 9.45283,16.780108 1.61734,-0.18061 3.88122,-0.99815 5.03085,-1.81675 z"
         id="path1796"
         inkscape:connector-curvature="0" />
      <path
         style="opacity:1;fill:#a3cd39;fill-opacity:1;stroke:none;stroke-width:5.65685415;stroke-linecap:square;stroke-linejoin:miter;stroke-miterlimit:4;stroke-dasharray:none;stroke-opacity:1;paint-order:markers stroke fill"
         d="m -73.542971,104.65949 v -2.12132 h 4.949747 4.949748 V 57.283341 12.028507 h -4.949748 -4.949747 V 9.9071864 7.7858661 h 19.091883 19.091883 v 7.4246209 c 0,4.083542 0.268171,7.424621 0.595937,7.424621 0.327766,0 1.333893,-1.43482 2.235838,-3.18849 2.742322,-5.331949 6.295703,-8.891586 11.009573,-11.0289566 9.274074,-4.2050658 20.96324641,-4.4876236 31.19354,-0.7540291 3.146682,1.1483965 6.33241,2.6991617 7.07939,3.4461447 0.746981,0.746983 1.976979,1.816127 2.733322,2.375877 2.087457,1.544874 5.202099,8.362967 5.974161,13.077686 0.381689,2.3309 0.690165,20.190039 0.692434,40.089165 l 0.0041,35.885665 h 4.596195 4.596194 v 2.12132 2.12133 H 11.663396 -12.024682 v -2.12133 c 0,-2.07417 0.07857,-2.12132 3.5355343,-2.12132 h 3.5355339 l -0.00396,-40.481859 c -0.00238,-24.613666 -0.2791332,-41.472553 -0.706015,-43.009244 -0.3861482,-1.39006 -1.522362,-3.297989 -2.5249192,-4.239843 -1.5518823,-1.457917 -2.524271,-1.712877 -6.541813,-1.715259 -7.580455,-0.0045 -11.013984,2.326716 -14.942145,10.145039 -2.374781,4.726592 -2.832016,12.327162 -2.84575,47.304589 l -0.01256,31.996577 h 3.18198 c 3.064129,0 3.181981,0.0786 3.181981,2.12132 v 2.12133 h -23.688077 -23.688077 z"
         id="path1798"
         inkscape:connector-curvature="0" />
      <path
         style="opacity:1;fill:#a3cd39;fill-opacity:1;stroke:none;stroke-width:5.65685415;stroke-linecap:square;stroke-linejoin:miter;stroke-miterlimit:4;stroke-dasharray:none;stroke-opacity:1;paint-order:markers stroke fill"
         d="m 77.379889,143.20384 c -7.452333,-1.31646 -16.627037,-4.23987 -18.8882,-6.0185 -0.988088,-0.77723 -2.091882,-1.41315 -2.452878,-1.41315 -1.237493,0 -6.008206,-5.96119 -6.983934,-8.7267 -2.605433,-7.38458 -0.04825,-13.59654 7.720933,-18.75589 l 4.0076,-2.66135 -4.826883,-2.3351 C 44.856613,97.923362 40.278134,88.239931 43.540733,77.033894 45.382382,70.70839 51.355888,64.255932 58.723302,60.633998 l 4.188772,-2.059265 -1.957218,-2.943794 C 53.979718,45.139842 52.828696,36.455717 57.032874,26.040702 59.765091,19.272175 66.186069,12.6627 72.828132,9.7817503 74.578221,9.0226609 76.646508,8.1162008 77.424326,7.7673945 84.90152,4.4143044 101.32473,3.4628397 110.05331,5.8770629 c 3.42367,0.9469487 7.35853,1.2016964 18.56154,1.2016964 H 142.8317 V 9.2000796 11.3214 h -9.89949 c -5.44472,0 -9.8995,0.181811 -9.8995,0.404025 0,0.222213 2.04875,2.442709 4.55277,4.934436 2.99919,2.984463 5.31384,6.125107 6.78311,9.203671 1.96825,4.124089 2.23298,5.402006 2.25284,10.87469 0.0243,6.696088 -0.66353,9.550207 -3.5507,14.733594 -4.64035,8.33087 -15.80357,15.248603 -27.20906,16.861161 -12.439043,1.758687 -23.859909,0.628855 -31.960197,-3.161727 -7.146264,-3.344141 -11.558485,-2.826762 -14.54631,1.705709 -3.035548,4.604864 -0.877835,8.545318 6.048348,11.045598 3.903037,1.40896 6.13876,1.571432 27.930717,2.029722 13.028442,0.27399 25.708772,0.866128 28.178522,1.315862 6.3804,1.161854 13.29666,4.864074 16.64773,8.911405 3.08431,3.725145 5.37833,10.874504 5.37833,16.761684 0,16.23534 -12.57665,29.69549 -32.52691,34.81189 -9.28739,2.38183 -24.617722,3.04311 -33.632011,1.45072 z m 29.194141,-5.5609 c 8.06989,-2.24127 13.27501,-4.7069 16.45868,-7.79637 4.07084,-3.95037 4.52215,-4.55833 5.5299,-7.44917 2.71997,-7.80252 -1.44237,-12.85221 -12.23892,-14.84807 -2.39329,-0.44242 -13.04449,-0.76851 -25.101938,-0.76851 H 70.277127 l -2.224195,2.29809 c -4.140902,4.27849 -5.340412,9.67266 -3.646684,16.39907 1.376395,5.46616 8.616991,10.85191 17.260719,12.83898 5.226598,1.20152 19.549623,0.81393 24.907063,-0.67402 z M 99.697482,63.181686 c 1.109118,-0.655173 2.717578,-2.736254 3.644638,-4.715555 1.60552,-3.427853 1.65937,-4.129884 1.65937,-21.631471 0,-17.880334 -0.0204,-18.129353 -1.76777,-21.624173 -2.31816,-4.636328 -3.196,-5.2540133 -7.504971,-5.2808122 -7.566848,-0.047061 -9.112035,4.8653832 -9.112035,28.9688892 0,15.134298 0.377584,18.053904 2.840403,21.962988 2.111848,3.352006 6.724406,4.397062 10.240365,2.320134 z"
         id="path1800"
         inkscape:connector-curvature="0" />
      <path
         style="opacity:1;fill:#a3cd39;fill-opacity:1;stroke:none;stroke-width:5.65685415;stroke-linecap:square;stroke-linejoin:miter;stroke-miterlimit:4;stroke-dasharray:none;stroke-opacity:1;paint-order:markers stroke fill"
         d="m 176.36813,109.3006 c -5.09699,-1.43855 -11.61612,-4.42671 -11.61612,-5.32446 0,-0.41865 -0.76641,-1.11038 -1.70314,-1.53719 -1.78927,-0.81524 -5.39199,-5.8715 -7.10524,-9.971885 -2.70251,-6.468012 -1.89942,-20.193664 1.44951,-24.773679 0.91625,-1.253074 1.98436,-2.994263 2.37357,-3.869308 0.38921,-0.875044 1.02266,-1.59099 1.40766,-1.59099 0.38501,0 1.77658,-0.945245 3.0924,-2.100545 3.38263,-2.969991 14.63641,-7.79895 18.17527,-7.79895 2.20495,0 17.71169,-4.413681 22.06938,-6.281608 1.74346,-0.747334 3.33785,-1.796374 3.54308,-2.3312 0.65089,-1.69618 0.0278,-24.896573 -0.71898,-26.769894 -0.39358,-0.987321 -2.02274,-2.976059 -3.62036,-4.419417 -2.78983,-2.520438 -3.10756,-2.6241032 -8.02926,-2.6196283 -5.91131,0.00537 -8.0207,1.0387613 -10.97735,5.3777733 -2.00832,2.947299 -9.34994,17.560815 -9.34994,18.611091 0,0.347719 -0.85978,2.569078 -1.91063,4.936355 l -1.91063,4.30414 h -3.39267 -3.39267 V 27.327369 11.513532 l 3.00521,-1.135148 c 12.71707,-4.8035863 30.70868,-7.1763343 41.53907,-5.4782065 7.35096,1.152577 16.56302,4.4996504 19.51301,7.0897805 1.35298,1.187928 2.727,2.159869 3.05339,2.159869 0.32639,0 1.98585,2.745551 3.6877,6.101226 l 3.09428,6.101226 0.23055,38.092947 0.23056,38.092944 h 4.18886 c 4.18289,0 4.18887,0.003 4.18887,2.12132 v 2.12133 h -18.03123 -18.03122 v -7.071073 c 0,-4.357616 -0.27813,-7.071068 -0.72478,-7.071068 -0.39864,0 -0.91571,0.954595 -1.14905,2.121321 -0.23335,1.166726 -0.65161,2.12132 -0.92948,2.12132 -0.27787,0 -0.84983,0.756329 -1.27101,1.680729 -1.58875,3.486921 -5.54801,7.083871 -10.06782,9.146541 -3.76114,1.71644 -5.75241,2.14355 -10.96015,2.35091 -4.11464,0.16383 -7.63166,-0.1044 -9.95064,-0.7589 z m 23.11991,-8.22143 c 2.1942,-1.119397 3.24973,-2.312682 4.5347,-5.126521 3.38131,-7.404413 3.94967,-11.191047 4.21788,-28.101115 0.13913,-8.771571 0.0335,-16.303431 -0.23477,-16.737467 -0.34206,-0.553458 -1.33043,-0.387808 -3.30923,0.554624 -1.55182,0.739078 -3.97975,1.671171 -5.39539,2.071316 -1.41564,0.400146 -3.99784,1.5234 -5.73822,2.49612 -2.61565,1.461911 -3.41783,2.430996 -4.62624,5.588753 -2.16586,5.659737 -3.19573,14.25466 -2.78634,23.253774 0.69151,15.200636 4.93257,20.288446 13.33761,16.000516 z"
         id="path1802"
         inkscape:connector-curvature="0" />
      <path
         style="opacity:1;fill:#a3cd39;fill-opacity:1;stroke:none;stroke-width:11.31370831;stroke-linecap:square;stroke-linejoin:miter;stroke-miterlimit:4;stroke-dasharray:none;stroke-opacity:1;paint-order:markers stroke fill"
         d="m 258.07849,104.64132 c 0,-1.48156 1.49278,-2.12132 4.94974,-2.12132 h 4.94975 V 38.88039 -24.75922 h -4.94975 c -3.45696,0 -4.94974,-0.639764 -4.94974,-2.121321 0,-1.788086 3.22126,-2.12132 20.50609,-2.12132 h 20.5061 V 36.759069 102.52 h 4.94975 c 3.45696,0 4.94974,0.63976 4.94974,2.12132 0,1.80705 -3.77123,2.12132 -25.45584,2.12132 -21.68461,0 -25.45584,-0.31427 -25.45584,-2.12132 z"
         id="path1804"
         inkscape:connector-curvature="0" />
      <path
         style="opacity:1;fill:#a3cd39;fill-opacity:1;stroke:none;stroke-width:11.31370831;stroke-linecap:square;stroke-linejoin:miter;stroke-miterlimit:4;stroke-dasharray:none;stroke-opacity:1;paint-order:markers stroke fill"
         d="m 327.0214,141.88848 -3.88909,-1.42042 v -18.36528 c 0,-17.9858 0.0628,-18.35595 3.03842,-17.91337 2.46091,0.36601 3.77517,2.75975 6.91465,12.59403 6.75203,21.15042 9.31879,24.19065 15.12072,17.90992 3.37824,-3.65704 10.219,-19.30824 10.50529,-24.03544 0.19515,-3.22213 -3.36542,-12.167689 -27.02133,-67.888443 -11.86251,-27.941767 -13.37063,-30.759145 -16.46504,-30.759145 -2.08512,0 -3.40642,-0.822829 -3.40642,-2.1213203 0,-1.8091741 3.8498,-2.1213203 26.16295,-2.1213203 22.31315,0 26.16295,0.3121462 26.16295,2.1213203 0,1.5379223 -1.58194,2.1213203 -5.75215,2.1213203 -5.29877,0 -5.67863,0.250805 -4.81938,3.181981 1.68235,5.739007 17.60318,49.32461 18.7952,51.45464 0.78348,1.400004 4.21234,-7.075932 10.48761,-25.924721 l 9.32354,-28.004793 -7.65345,-0.424128 c -5.5482,-0.307463 -7.65345,-0.988229 -7.65345,-2.474874 0,-1.654802 2.73047,-2.0507456 14.14214,-2.0507456 11.62798,0 14.14214,0.3771237 14.14214,2.1213203 0,1.3812083 -1.38337,2.1213203 -3.96504,2.1213203 -3.60198,0 -4.23884,0.809307 -6.95547,8.838835 -26.47478,78.2514 -37.43527,109.355083 -39.99413,113.495403 -1.7042,2.75745 -4.91469,5.95272 -7.13442,7.10059 -4.55626,2.35613 -14.26244,2.57035 -20.08624,0.44332 z"
         id="path1806"
         inkscape:connector-curvature="0" />
      <path
         style="opacity:1;fill:#a3cd39;fill-opacity:1;stroke:none;stroke-width:11.31370831;stroke-linecap:square;stroke-linejoin:miter;stroke-miterlimit:4;stroke-dasharray:none;stroke-opacity:1;paint-order:markers stroke fill"
         d="m 429.94755,107.33631 c -12.72705,-4.65917 -19.60094,-18.220637 -16.42614,-32.407101 2.74528,-12.267219 10.56195,-18.006372 31.70257,-23.276644 6.86957,-1.712554 14.66542,-4.022634 17.32412,-5.133507 l 4.83399,-2.019772 -0.002,-11.648283 c -0.003,-14.864227 -2.69329,-20.990616 -10.01279,-22.799702 -7.6858,-1.8996195 -12.46512,1.085318 -17.86532,11.157835 -2.50019,4.663377 -5.64878,11.501747 -6.99689,15.19638 -1.95545,5.359144 -3.10953,6.717514 -5.70725,6.717514 -3.20077,0 -3.25617,-0.263816 -3.25617,-15.506591 0,-17.8436125 -0.89579,-16.639429 15.2733,-20.531449 15.04405,-3.6212158 32.55077,-2.5740589 43.0786,2.5767268 6.67408,3.2653222 8.48986,5.0204912 11.55293,11.1672752 3.62594,7.276304 3.63428,7.378375 3.63428,44.492021 V 102.52 h 4.24264 c 2.82842,0 4.24264,0.70711 4.24264,2.12132 0,1.77201 -2.89878,2.12132 -17.60376,2.12132 h -17.60377 l -0.42746,-7.204965 -0.42746,-7.204966 -4.62698,6.582886 c -2.68103,3.814335 -6.67663,7.439285 -9.50052,8.619175 -6.13823,2.56472 -18.10666,2.46189 -25.42836,-0.21846 z m 29.34882,-6.58408 c 4.47121,-3.357182 6.96104,-13.841615 7.72445,-32.526909 0.47654,-11.664016 0.23315,-18.031223 -0.68926,-18.031223 -0.78428,0 -5.04104,1.598763 -9.45948,3.552806 -10.90704,4.823611 -12.51587,8.750066 -11.88263,29.000256 0.31645,10.119733 1.1129,15.875072 2.41326,17.4388 2.29623,2.7613 8.57228,3.06011 11.89366,0.56627 z"
         id="path1808"
         inkscape:connector-curvature="0" />
      <path
         style="opacity:1;fill:#a3cd39;fill-opacity:1;stroke:none;stroke-width:2.82842708;stroke-linecap:square;stroke-linejoin:miter;stroke-miterlimit:4;stroke-dasharray:none;stroke-opacity:1;paint-order:markers stroke fill"
         d="m -148.37334,-44.292316 c 0,-0.309572 -1.69365,-1.577828 -3.59934,-2.695293 -0.3684,-0.216021 -1.03207,-0.733093 -1.47484,-1.149049 -0.44276,-0.415959 -0.98039,-0.756286 -1.19472,-0.756286 -0.21433,0 -0.44272,-0.119324 -0.50754,-0.265165 -0.0648,-0.145841 -1.07245,-1.023862 -2.23917,-1.951159 -1.16673,-0.927296 -2.59862,-2.08425 -3.18198,-2.571004 -0.58337,-0.486755 -2.09481,-1.666672 -3.35876,-2.622034 -1.26396,-0.955365 -2.79723,-2.145121 -3.40728,-2.643907 -0.61005,-0.498786 -1.2511,-0.906886 -1.42455,-0.906886 -0.17346,0 -0.54472,-0.318198 -0.82503,-0.707107 -0.28031,-0.388909 -0.70594,-0.707107 -0.94586,-0.707107 -0.23991,0 -0.83396,-0.397747 -1.32009,-0.883883 -0.48614,-0.486136 -1.02556,-0.883884 -1.19871,-0.883884 -0.17316,0 -0.61791,-0.336975 -0.98835,-0.748836 -0.37043,-0.411862 -0.99171,-0.879072 -1.38062,-1.038249 -0.6181,-0.252985 -0.58412,-0.292236 0.26997,-0.311823 0.53738,-0.01234 1.25333,-0.161712 1.59099,-0.331969 0.33765,-0.170254 1.48896,-0.554039 2.55846,-0.852856 2.00398,-0.559908 5.78293,-1.650765 9.19239,-2.653542 1.0695,-0.314556 2.09569,-0.698342 2.28042,-0.852855 0.18473,-0.154517 0.77196,-0.280937 1.30496,-0.280937 0.53299,0 1.05606,-0.140743 1.16238,-0.312757 0.10631,-0.172018 0.90748,-0.419859 1.78039,-0.550759 0.8729,-0.130899 1.67974,-0.387908 1.79298,-0.571126 0.11323,-0.183219 0.6644,-0.333125 1.22481,-0.333125 0.56041,0 1.11726,-0.159099 1.23744,-0.353554 0.12018,-0.194454 0.59747,-0.353553 1.06066,-0.353553 0.46318,0 0.93192,-0.145254 1.04164,-0.322791 0.10973,-0.177533 0.86872,-0.435853 1.68665,-0.574043 0.81794,-0.138186 1.7637,-0.42396 2.10171,-0.635046 0.46523,-0.290539 0.89806,-0.237496 1.78136,0.218309 1.27061,0.655668 2.47869,1.386845 2.7578,1.669136 0.47361,0.478998 2.81036,2.119309 3.01913,2.119309 0.13083,0 0.84051,0.477297 1.57707,1.06066 0.73655,0.583363 1.43168,1.06066 1.54472,1.06066 0.11305,0 1.73082,1.034144 3.59506,2.298097 1.86424,1.263953 3.53871,2.298097 3.72106,2.298097 0.18235,0 0.33154,0.125674 0.33154,0.279279 0,0.153605 0.7955,0.743873 1.76777,1.311711 0.97227,0.567839 1.76777,1.158107 1.76777,1.311712 0,0.153605 0.16073,0.279279 0.35718,0.279279 0.19645,0 1.14941,0.556846 2.11769,1.237436 0.96829,0.680591 1.92125,1.237437 2.11769,1.237437 0.19645,0 0.35819,0.119325 0.35942,0.265165 0.008,0.91757 3.90772,1.973387 4.39241,1.189128 0.10656,-0.172411 0.77193,-0.421942 1.47861,-0.554517 0.70667,-0.132572 1.58348,-0.389255 1.94845,-0.570409 0.36497,-0.18115 0.97961,-0.488466 1.36589,-0.68292 0.38627,-0.194454 1.01327,-0.353553 1.39334,-0.353553 0.38008,0 0.7772,-0.139403 0.8825,-0.309787 0.1053,-0.170385 1.58636,-0.74417 3.29124,-1.27508 1.70487,-0.53091 3.41797,-1.085717 3.806878,-1.232901 0.388909,-0.147184 1.582152,-0.544288 2.651651,-0.882452 1.069499,-0.338166 2.580939,-0.896986 3.358757,-1.241824 0.777817,-0.344838 1.950929,-0.743247 2.606915,-0.885351 0.655987,-0.142103 1.69013,-0.544196 2.298097,-0.893539 0.607967,-0.349342 1.615647,-0.741277 2.239291,-0.870968 0.623643,-0.12969 1.769425,-0.542853 2.546182,-0.918143 0.77676,-0.37529 1.563169,-0.682344 1.747579,-0.682344 0.374646,0 5.586575,-2.092357 8.45898,-3.395901 1.0262,-0.465708 1.978273,-0.846739 2.115717,-0.846739 0.13744,0 1.047911,-0.385416 2.023266,-0.856476 3.232605,-1.561239 8.449448,-3.998159 11.496089,-5.370116 1.652862,-0.744314 3.4825,-1.633222 4.065864,-1.975348 0.583363,-0.342127 2.482132,-1.381107 4.21949,-2.308849 5.837905,-3.117418 6.429845,-3.451713 7.525677,-4.250065 0.600553,-0.437523 1.193119,-0.795495 1.316813,-0.795495 0.123698,0 0.655983,-0.290886 1.182859,-0.646413 0.526876,-0.355526 1.898511,-1.267669 3.048076,-2.026985 1.149564,-0.759316 2.270679,-1.561133 2.491363,-1.781817 0.220684,-0.220685 0.751796,-0.512504 1.18025,-0.648491 0.428453,-0.135984 0.779005,-0.395623 0.779005,-0.576975 0,-0.181348 0.219168,-0.329727 0.487041,-0.329727 0.26787,0 0.698855,-0.255223 0.957741,-0.567163 0.258886,-0.311937 0.795438,-0.709306 1.192337,-0.883039 1.087849,-0.476176 2.060312,-1.131098 2.702672,-1.820167 0.317229,-0.340295 0.729261,-0.618718 0.915622,-0.618718 0.186365,0 0.712506,-0.397748 1.169208,-0.883884 0.456703,-0.486136 1.012644,-0.883883 1.235429,-0.883883 0.222781,0 1.055611,-0.556847 1.850728,-1.237435 0.795117,-0.68059 1.532633,-1.23744 1.638929,-1.23744 0.249343,0 2.48787,-1.5182 3.183147,-2.15885 0.294146,-0.27104 1.117851,-0.89055 1.830452,-1.37668 0.712604,-0.48614 1.894859,-1.40096 2.627234,-2.03293 0.732372,-0.63198 1.438312,-1.14905 1.568752,-1.14905 0.13044,0 1.4083619,-0.99437 2.8398218,-2.20971 1.4314634,-1.21534 3.5328433,-2.98388 4.6697331,-3.93008 3.22470393,-2.68382 5.9246639,-5.10007 9.2382617,-8.26751 1.6782755,-1.60425 3.1711335,-2.91682 3.3174622,-2.91682 0.4006573,0 15.2139682,-14.983 18.8562822,-19.07228 1.750089,-1.96486 3.858151,-4.31298 4.684582,-5.21804 0.826431,-0.90507 1.502602,-1.7373 1.502602,-1.84941 0,-0.11211 0.636396,-0.87946 1.414214,-1.70523 0.777817,-0.82577 1.414213,-1.60112 1.414213,-1.723 0,-0.12188 0.517072,-0.83083 1.149049,-1.57543 0.631977,-0.74461 1.705895,-2.08326 2.386485,-2.97477 0.68059,-0.89152 1.51586,-1.88815 1.856156,-2.21474 0.340295,-0.32659 0.618718,-0.73571 0.618718,-0.90916 0,-0.17345 0.795495,-1.23361 1.767767,-2.35592 0.972272,-1.12231 1.767767,-2.18806 1.767767,-2.36835 0,-0.18028 0.477297,-0.78506 1.06066,-1.34396 0.583363,-0.5589 1.06066,-1.16239 1.06066,-1.34109 0,-0.17871 0.47991,-0.93086 1.066466,-1.67145 1.582448,-1.998 3.481535,-4.6692 3.890844,-5.47274 0.198103,-0.38891 0.829772,-1.42305 1.403706,-2.2981 1.081173,-1.6484 3.657807,-6.62684 3.751177,-7.24784 0.02924,-0.19446 0.406947,-1.14905 0.83935,-2.12132 1.407924,-3.16576 2.483486,-6.46391 2.483486,-7.61548 0,-0.44168 -0.397748,-1.32453 -0.883884,-1.96189 -0.486135,-0.63736 -0.883883,-1.2658 -0.883883,-1.39655 0,-0.13074 -0.400145,-0.73798 -0.889212,-1.34941 -1.340624,-1.67605 -1.36753,-1.714 -2.292302,-3.23302 -1.248114,-2.05013 -5.073208,-7.40422 -5.388532,-7.54247 -0.147835,-0.0648 -0.268789,-0.33188 -0.268789,-0.59347 0,-0.26159 -0.200122,-0.68585 -0.444713,-0.94281 -0.244596,-0.25696 -0.682118,-0.81062 -0.972272,-1.23036 -2.321131,-3.35778 -4.768258,-6.69887 -5.038299,-6.87886 -0.179396,-0.11957 -0.521204,-0.59687 -0.759567,-1.06066 -0.362805,-0.70591 -0.322843,-1.05948 0.245366,-2.17085 0.373317,-0.73017 0.831194,-1.4218 1.017502,-1.53694 0.186312,-0.11515 0.487649,-0.55187 0.669648,-0.97051 0.524235,-1.20587 1.166309,-2.12671 1.83519,-2.63197 0.340295,-0.25706 0.618718,-0.64556 0.618718,-0.86334 0,-0.21778 0.692622,-1.44178 1.539159,-2.71999 0.846538,-1.27821 2.031119,-3.11952 2.632403,-4.09179 0.601282,-0.97227 2.095331,-3.35876 3.320107,-5.3033 2.871529,-4.55905 2.968859,-4.72097 3.719149,-6.18719 0.348271,-0.68059 0.728853,-1.31698 0.845738,-1.41421 0.360607,-0.29996 2.066576,-3.28671 2.675738,-4.68458 0.31777,-0.72921 0.683033,-1.32583 0.811695,-1.32583 0.128665,0 0.452425,-0.55684 0.719467,-1.23743 0.267042,-0.68059 0.612941,-1.23744 0.768661,-1.23744 0.155722,0 0.677104,0.59662 1.158629,1.32582 0.481522,0.72921 1.326858,1.96223 1.878525,2.74004 0.551663,0.77782 1.109284,1.69264 1.239159,2.03294 0.129874,0.34029 0.400226,0.61871 0.600786,0.61871 0.200556,0 0.364648,0.16073 0.364648,0.35718 0,0.19645 0.517072,1.11844 1.149048,2.04888 1.104052,1.62544 1.712051,2.61294 2.545726,4.13468 0.546724,0.99796 3.862249,5.97406 4.122457,6.18719 0.118706,0.0972 0.495463,0.73362 0.837232,1.41421 0.341773,0.68059 1.04014,1.79179 1.551934,2.46933 1.000096,1.32399 1.430183,2.01717 2.351508,3.78998 0.323788,0.62303 0.812699,1.31868 1.086466,1.54589 0.273771,0.22721 0.497764,0.55135 0.497764,0.72031 0,0.16896 0.525681,0.99588 1.168176,1.8376 0.642498,0.84172 1.367488,2.01158 1.611093,2.59968 0.470778,1.13657 0.569048,0.93509 -3.198003,6.55672 -0.353059,0.52687 -0.641926,1.1235 -0.641926,1.32582 0,0.20233 -0.144907,0.36787 -0.322013,0.36787 -0.177109,0 -0.662368,0.70308 -1.078352,1.56238 -0.415984,0.85931 -0.987022,1.75384 -1.268974,1.98784 -0.281951,0.234 -0.512641,0.57178 -0.512641,0.75064 0,0.17885 -0.169593,0.51734 -0.376871,0.7522 -0.343873,0.38963 -0.867871,1.23739 -3.512217,5.68227 -1.104299,1.85622 -2.567759,4.17356 -4.507805,7.13796 -1.446939,2.21092 -1.84912,3.33992 -1.189785,3.33992 0.172046,0 0.425346,0.90066 0.562881,2.00146 0.137536,1.10081 0.380378,2.25428 0.539647,2.56326 0.159268,0.30899 0.606895,1.51639 0.994726,2.68312 1.159001,3.48669 1.541553,4.41669 3.51431,8.54351 1.037824,2.17103 2.356787,4.59591 2.931032,5.38863 0.574245,0.79272 1.044082,1.60179 1.044082,1.79792 0,0.19614 0.159099,0.35662 0.353553,0.35662 0.194454,0 0.353553,0.28043 0.353553,0.62319 0,0.34276 0.397748,0.92189 0.883884,1.28696 0.486136,0.36508 0.883883,0.85548 0.883883,1.08978 0,0.23431 0.318198,0.71397 0.707107,1.06593 0.388909,0.35196 0.707107,0.78059 0.707107,0.9525 0,0.34397 2.1595,3.12703 5.568466,7.17638 1.21534,1.44364 2.209708,2.73153 2.209708,2.86197 0,0.13044 0.564834,0.89284 1.255182,1.69423 0.690352,0.80138 1.366523,1.61869 1.502602,1.81624 0.136083,0.19755 1.003141,1.25706 1.926799,2.35448 0.923658,1.09742 1.679378,2.13652 1.679378,2.30911 0,0.17259 0.636397,0.93523 1.414214,1.69474 0.77782,0.75952 1.41421,1.53091 1.41421,1.71421 0,0.68914 20.94106,21.64873 22.13106,22.15065 0.39658,0.16727 2.47258,1.95756 6.66209,5.74524 1.02165,0.92366 1.96602,1.67938 2.09859,1.67938 0.13258,0 0.7536,0.47904 1.38005,1.06452 1.67549,1.56593 6.68672,5.66864 8.41625,6.89043 0.82579,0.58336 2.15137,1.54574 2.94573,2.13861 0.79436,0.59287 2.00114,1.38837 2.68173,1.76777 0.68059,0.3794 1.31698,0.78493 1.41421,0.90118 0.39965,0.47785 5.33053,3.854498 5.62867,3.854498 0.17755,0 0.37585,0.119324 0.44067,0.265165 0.14515,0.326606 2.30078,1.856155 2.61591,1.856155 0.12574,0 0.80835,0.455497 1.51692,1.01222 0.70857,0.556719 1.84516,1.294865 2.52575,1.640322 0.68059,0.345457 1.31699,0.72523 1.41422,0.843935 0.29737,0.363071 2.43176,1.806824 2.67114,1.806824 0.1237,0 0.72346,0.357973 1.33281,0.795495 1.39416,1.001034 1.7834,1.23895 4.343,2.654543 3.15882,1.746995 4.32912,2.432281 4.81898,2.82183 1.04058,0.827481 9.84601,5.392831 10.4043,5.394305 0.22684,7.07e-4 0.46549,0.120413 0.53033,0.266254 0.19174,0.431452 21.83903,11.048543 22.52698,11.048543 0.20866,0 1.29775,0.422069 2.42014,0.937932 1.12243,0.515859 2.75673,1.24543 3.63177,1.621265 0.87505,0.375838 2.04142,0.90836 2.5919,1.183392 0.55052,0.27503 1.29687,0.500052 1.65852,0.500052 0.36169,0 0.7448,0.141064 0.85132,0.313475 0.10656,0.17241 0.75236,0.418268 1.43511,0.546349 0.68271,0.128082 1.24133,0.384769 1.24133,0.570409 0,0.185644 0.36592,0.337534 0.81317,0.337534 0.44724,0 0.96432,0.136875 1.14905,0.304166 0.18473,0.167294 1.21092,0.586775 2.28042,0.932186 1.0695,0.345411 2.26274,0.749328 2.65165,0.89759 0.38891,0.148263 1.26395,0.460783 1.94454,0.694485 0.68059,0.233703 1.55564,0.55445 1.94454,0.712767 0.38891,0.158322 1.58216,0.561747 2.65166,0.896506 2.11644,0.66246 3.37834,1.132438 4.31557,1.60731 0.33181,0.168111 1.28641,0.409917 2.12132,0.537348 0.83492,0.127431 1.67716,0.353826 1.87161,0.5031 0.19445,0.149277 0.7513,0.344537 1.23744,0.433916 0.48613,0.08938 -0.0787,0.184173 -1.25512,0.210654 -1.17645,0.02648 -2.29014,-0.09466 -2.47487,-0.269192 -0.18473,-0.174539 -0.97227,-0.405413 -1.75009,-0.513056 -3.5145,-0.48638 -6.86473,-1.136861 -7.10402,-1.379314 -0.14393,-0.145841 -0.79415,-0.265165 -1.44497,-0.265165 -0.65082,0 -1.45958,-0.13919 -1.79726,-0.309313 -0.33764,-0.170123 -1.80715,-0.587359 -3.26556,-0.927194 -1.4584,-0.339836 -2.81075,-0.737502 -3.0052,-0.883707 -0.19445,-0.146201 -0.83085,-0.352072 -1.41421,-0.457487 -0.58337,-0.105416 -2.17436,-0.506663 -3.53554,-0.891662 -2.2381,-0.633023 -3.00538,-0.90276 -5.3033,-1.864315 -0.38891,-0.162737 -1.54478,-0.559778 -2.56863,-0.882314 -1.02382,-0.322536 -1.94805,-0.726421 -2.0538,-0.897527 -0.10574,-0.171106 -0.57123,-0.311102 -1.03442,-0.311102 -0.46319,0 -0.93292,-0.146859 -1.04387,-0.326351 -0.11091,-0.179496 -0.70615,-0.437158 -1.32275,-0.572583 -0.6166,-0.135429 -1.60916,-0.509407 -2.20568,-0.831067 -0.59651,-0.321659 -2.03915,-0.945939 -3.20588,-1.38729 -1.16672,-0.441348 -2.91932,-1.193303 -3.89467,-1.671007 -0.97538,-0.477707 -1.93624,-0.868556 -2.13529,-0.868556 -0.19905,0 -1.42987,-0.556847 -2.73519,-1.237437 -1.30532,-0.680591 -2.53919,-1.237437 -2.74195,-1.237437 -0.69116,0 -14.02121,-6.42712 -15.6955,-7.567634 -0.57181,-0.389509 -2.78855,-1.568592 -4.9261,-2.62018 -2.13755,-1.051588 -4.09691,-2.122434 -4.35413,-2.379659 -0.25723,-0.257224 -0.82471,-0.578526 -1.26108,-0.714004 -0.43637,-0.135475 -1.19115,-0.520901 -1.67729,-0.856501 -0.48614,-0.3356 -1.59983,-1.012474 -2.47487,-1.504172 -2.13569,-1.200055 -4.80828,-2.783154 -5.95626,-3.528155 -0.51592,-0.334815 -1.55623,-0.971211 -2.3118,-1.414213 -2.11575,-1.240496 -2.44047,-1.447858 -3.75276,-2.396452 -1.31176,-0.948213 -2.33251,-1.587639 -3.18198,-1.993278 -0.29168,-0.139282 -0.60988,-0.345301 -0.70711,-0.45782 -0.0972,-0.112515 -0.81317,-0.672557 -1.59099,-1.244531 -0.77781,-0.57198 -1.49376,-1.12792 -1.59099,-1.23543 -0.22967,-0.25396 -1.44444,-1.01578 -2.12039,-1.32976 -0.29117,-0.13526 -0.87685,-0.57176 -1.30151,-0.97002 -0.42466,-0.39826 -1.53877,-1.27995 -2.4758,-1.9593 -0.93703,-0.67935 -1.78324,-1.31942 -1.88047,-1.42238 -0.0972,-0.10296 -0.64226,-0.48392 -1.21117,-0.8466 -0.56892,-0.36267 -1.36441,-0.9557 -1.76777,-1.31783 -0.40335,-0.36214 -1.52887,-1.29022 -2.50114,-2.0624 -2.56756,-2.03917 -3.90349,-3.14028 -6.32777,-5.21552 -4.3356,-3.71135 -5.69338,-4.93703 -9.21434,-8.31779 -1.97455,-1.89593 -3.74272,-3.44715 -3.92926,-3.44715 -0.43519,0 -8.28257,-7.85808 -8.28257,-8.29387 0,-0.18032 -1.600505,-2.00747 -3.556677,-4.06033 -5.557926,-5.83264 -6.561438,-6.96141 -11.490573,-12.92486 -0.482183,-0.58337 -1.505271,-1.85616 -2.273532,-2.82843 -0.768261,-0.97227 -1.640145,-2.04619 -1.937522,-2.38649 -0.297378,-0.34029 -0.540686,-0.75458 -0.540686,-0.92064 0,-0.16606 -0.397748,-0.7311 -0.883883,-1.25565 -0.486136,-0.52455 -0.883884,-1.0546 -0.883884,-1.17789 0,-0.12329 -0.305311,-0.55262 -0.678465,-0.95406 -0.779663,-0.83876 -2.629006,-3.39524 -4.492264,-6.20997 -0.707973,-1.0695 -1.397002,-2.02409 -1.531179,-2.12132 -0.134178,-0.0972 -0.353434,-0.41543 -0.487229,-0.70711 -0.133799,-0.29168 -0.555234,-1.00762 -0.93652,-1.59099 -0.381286,-0.58336 -1.019164,-1.65728 -1.417505,-2.38648 -0.398342,-0.72921 -0.890584,-1.32583 -1.09387,-1.32583 -0.631004,0 -1.737337,0.71235 -1.737337,1.11864 0,0.21266 -0.517071,0.99902 -1.149048,1.74746 -2.170383,2.57038 -3.093592,3.7721 -3.093592,4.02689 0,0.14035 -0.311735,0.59581 -0.692749,1.01213 -0.974001,1.06426 -2.888864,3.4505 -3.726669,4.64407 -0.388908,0.55406 -1.303728,1.67399 -2.032932,2.48875 -0.729203,0.81475 -1.325825,1.59566 -1.325825,1.73536 0,0.32193 -2.292295,3.10342 -3.800699,4.61181 -0.631976,0.63196 -1.149048,1.2979 -1.149048,1.47987 0,0.18196 -0.556847,0.87055 -1.237437,1.53021 -0.68059,0.65965 -1.237437,1.35681 -1.237437,1.54924 0,0.19243 -0.624343,0.99649 -1.387432,1.7868 -2.855555,2.95743 -4.976529,5.40554 -4.976529,5.74411 0,0.19238 -1.113693,1.42496 -2.474874,2.73907 -1.36118,1.31411 -2.474873,2.5558 -2.474873,2.75931 0,0.46039 -10.810298,11.23086 -11.272382,11.23086 -0.184862,0 -1.343701,1.05391 -2.575205,2.34202 -1.231501,1.28811 -2.741397,2.68022 -3.355321,3.09359 -0.613924,0.41337 -2.711931,2.18347 -4.662238,3.93356 -4.7924087,4.30043 -6.345894,5.5985 -7.1519038,5.97604 -0.3747914,0.17556 -0.6814353,0.41799 -0.6814353,0.53873 0,0.12075 -0.9659538,0.93171 -2.1465641,1.80213 -1.1806067,0.87043 -2.75300354,2.05989 -3.49421054,2.64325 -0.74120696,0.58337 -1.78981096,1.37886 -2.33022796,1.76777 -1.6193452,1.16535 -3.4732944,2.58683 -4.2491319,3.25794 -0.9159508,0.7923 -1.8906091,1.4256 -2.8204154,1.8326 -0.396899,0.17373 -0.933452,0.571098 -1.192338,0.883035 -0.258886,0.31194 -0.689871,0.567163 -0.957741,0.567163 -0.267873,0 -0.487041,0.156069 -0.487041,0.346818 0,0.190749 -0.397747,0.446644 -0.883883,0.568659 -0.486136,0.122011 -0.883884,0.345563 -0.883884,0.496782 0,0.151214 -0.596621,0.55453 -1.325825,0.896254 -0.729204,0.34172 -1.882672,1.043007 -2.563262,1.558414 -0.68059,0.515406 -1.635184,1.131151 -2.12132,1.368322 -0.486136,0.237171 -1.758928,0.98495 -2.828427,1.661733 -1.069499,0.676779 -2.50139,1.497245 -3.181981,1.823253 -0.68059,0.326008 -1.450831,0.764485 -1.711651,0.97439 -0.543026,0.437027 -7.736741,4.245667 -12.960814,6.861969 -6.95505,3.483208 -14.50391,7.131483 -14.756166,7.131483 -0.141185,0 -1.651773,0.651589 -3.356866,1.447975 -4.628972,2.162017 -6.466294,2.983347 -8.226696,3.677535 -0.875045,0.345061 -2.092332,0.844423 -2.705083,1.109694 -0.61275,0.265271 -1.283522,0.482311 -1.490606,0.482311 -0.207083,0 -0.978533,0.260699 -1.714334,0.579336 -0.735801,0.318633 -1.656019,0.696571 -2.044928,0.839862 -0.388909,0.143288 -1.184404,0.455002 -1.767767,0.6927 -0.583363,0.237694 -2.492552,0.901381 -4.242641,1.474858 -1.750089,0.573478 -3.500178,1.183082 -3.889087,1.354676 -0.388909,0.17159 -1.90035,0.645942 -3.358757,1.054112 -1.458408,0.408167 -3.367596,0.977023 -4.242641,1.264126 -0.875045,0.2871 -1.939573,0.521216 -2.365619,0.520254 -0.426046,-0.0011 -0.872958,0.157349 -0.993138,0.351804 -0.12018,0.194454 -0.597477,0.353553 -1.06066,0.353553 -0.463184,0 -0.9336,0.147966 -1.045369,0.328808 -0.111766,0.180846 -1.077854,0.438088 -2.14686,0.571654 -1.069,0.133561 -2.03048,0.383347 -2.13661,0.555071 -0.10613,0.171728 -0.65149,0.312234 -1.2119,0.312234 -0.56041,0 -1.10954,0.146615 -1.22029,0.32581 -0.11075,0.179199 -1.23604,0.436617 -2.50065,0.572046 -1.26461,0.135428 -2.38603,0.386561 -2.49202,0.558073 -0.106,0.171509 -0.78792,0.311838 -1.51537,0.311838 -0.72745,0 -1.47378,0.143673 -1.65851,0.319276 -0.18473,0.1756 -1.05182,0.391971 -1.92687,0.480822 -1.38228,0.140357 -6.20068,1.709399 -8.3085,2.705546 -0.38891,0.183799 -1.34351,0.522093 -2.12132,0.751768 -0.77782,0.229675 -1.73241,0.609388 -2.12132,0.843808 -0.38891,0.234417 -1.6617,0.710264 -2.82843,1.057436 -2.73832,0.814817 -4.06586,1.371784 -4.06586,1.705824 0,0.146987 -0.31264,0.267248 -0.69475,0.267248 -0.71746,0 -3.54008,0.842963 -4.78533,1.429116 -0.38891,0.183063 -1.9799,0.749172 -3.53554,1.25802 -1.55563,0.508845 -2.97957,1.067 -3.1643,1.24034 -0.4506,0.422822 -1.25511,0.401057 -1.25511,-0.03394 z"
         id="path1810"
         inkscape:connector-curvature="0" />
      <path
         style="opacity:1;fill:#a3cd39;fill-opacity:1;stroke:none;stroke-width:1.41421354;stroke-linecap:square;stroke-linejoin:miter;stroke-miterlimit:4;stroke-dasharray:none;stroke-opacity:1;paint-order:markers stroke fill"
         d="m 281.11471,-44.232949 c -0.12104,-0.145841 -0.31094,-0.265165 -0.42201,-0.265165 -0.11107,0 -0.49879,-0.159099 -0.8616,-0.353553 -0.36281,-0.194455 -0.81259,-0.353554 -0.99952,-0.353554 -0.18693,0 -0.56508,-0.112364 -0.84033,-0.249699 -0.27526,-0.137334 -1.09709,-0.422575 -1.82629,-0.633869 -0.7292,-0.211295 -1.71429,-0.536452 -2.18909,-0.722573 -0.47479,-0.186122 -1.03632,-0.338402 -1.24784,-0.338402 -0.21152,0 -0.539,-0.116795 -0.72773,-0.259544 -0.18873,-0.142747 -0.55998,-0.262071 -0.82501,-0.265165 -0.26502,-0.0031 -0.74232,-0.164423 -1.06066,-0.358514 -0.31834,-0.194092 -0.80324,-0.353191 -1.07756,-0.353553 -0.27432,-3.54e-4 -0.61809,-0.119985 -0.76393,-0.265826 -0.14584,-0.145841 -0.40884,-0.265165 -0.58444,-0.265165 -0.17561,0 -0.41831,-0.119325 -0.53935,-0.265165 -0.12217,-0.147204 -0.50752,-0.265165 -0.86624,-0.265165 -0.42742,0 -0.74866,-0.119694 -0.9489,-0.353554 -0.20674,-0.24145 -0.52148,-0.353553 -0.99264,-0.353553 -0.4502,0 -0.72529,-0.09214 -0.79168,-0.265165 -0.0645,-0.168198 -0.33601,-0.265165 -0.74233,-0.265165 -0.37291,0 -0.8284,-0.147738 -1.09005,-0.353554 -0.24721,-0.194454 -0.68307,-0.353553 -0.96859,-0.353553 -0.28551,0 -0.63844,-0.119324 -0.78428,-0.265165 -0.14584,-0.145841 -0.49344,-0.265165 -0.77244,-0.265165 -0.279,0 -0.55509,-0.07739 -0.61355,-0.171974 -0.0585,-0.09458 -0.44101,-0.258348 -0.85012,-0.363918 -0.40911,-0.105571 -0.99451,-0.306606 -1.30089,-0.446746 -0.30637,-0.14014 -0.68836,-0.254799 -0.84886,-0.254799 -0.1605,0 -0.586,-0.151869 -0.94555,-0.337486 -0.9388,-0.48464 -1.40265,-0.665106 -2.59829,-1.010883 -1.10264,-0.318883 -1.85977,-0.772951 -1.28886,-0.772951 0.15923,0 0.65426,-0.278424 1.10007,-0.618719 0.44582,-0.340295 0.89419,-0.618718 0.9964,-0.618718 0.1022,0 0.5987,-0.387693 1.10332,-0.86154 0.50463,-0.473847 1.07831,-0.910962 1.27486,-0.971366 0.19654,-0.0604 0.61909,-0.348881 0.93899,-0.641061 0.31989,-0.292181 0.6321,-0.531237 0.6938,-0.531237 0.13495,0 1.45006,-0.882101 1.77898,-1.193243 0.12848,-0.121534 0.33873,-0.22097 0.46722,-0.22097 0.1285,0 0.27942,-0.119325 0.33538,-0.265166 0.056,-0.14584 0.18702,-0.265165 0.29124,-0.265165 0.26741,0 1.21131,-0.691805 1.86926,-1.370019 0.30655,-0.315988 0.66945,-0.574524 0.80645,-0.574524 0.137,0 0.50399,-0.232821 0.81555,-0.517381 0.31155,-0.284559 0.74691,-0.574054 0.96747,-0.643322 0.22056,-0.06927 0.63488,-0.353519 0.92071,-0.631668 0.28583,-0.27815 0.64924,-0.505726 0.80758,-0.505726 0.15833,0 0.60064,-0.278361 0.98291,-0.61858 0.38226,-0.34022 0.82972,-0.618643 0.99436,-0.618719 0.16463,-7.6e-5 0.40328,-0.13935 0.53033,-0.309497 0.12704,-0.170148 0.5827,-0.501091 1.01256,-0.73543 0.42986,-0.234339 1.01484,-0.691749 1.29994,-1.016466 0.28511,-0.324717 0.64935,-0.592241 0.80942,-0.594497 0.16008,-0.0023 0.59815,-0.280679 0.97348,-0.618719 0.37534,-0.338039 0.77309,-0.614984 0.88389,-0.615434 0.1108,-4.42e-4 0.44477,-0.228908 0.74215,-0.507684 0.29739,-0.278777 0.73491,-0.565607 0.97228,-0.637402 0.23736,-0.07179 0.67021,-0.347874 0.96189,-0.61351 0.74565,-0.679069 1.55215,-0.972771 2.00527,-0.730263 0.19689,0.105369 0.60185,0.19158 0.89993,0.19158 0.29807,0 0.54195,0.07338 0.54195,0.163067 0,0.23968 1.20066,0.594891 1.6307,0.482434 0.22215,-0.05809 0.54476,0.04081 0.80765,0.247601 0.25747,0.202526 0.71136,0.344334 1.10211,0.344334 0.42746,0 0.70064,0.09455 0.76611,0.265165 0.0713,0.185746 0.361,0.265166 0.96734,0.265166 0.59792,0 1.00459,0.109332 1.31506,0.353553 0.24721,0.194454 0.70114,0.353553 1.00874,0.353553 0.3076,0 0.67859,0.119325 0.82444,0.265165 0.16213,0.16214 0.59526,0.265165 1.11477,0.265165 0.53955,0 0.92992,0.09677 1.06968,0.265165 0.14244,0.171631 0.53489,0.265165 1.11258,0.265165 0.56648,0 1.00559,0.102336 1.20207,0.280147 0.17026,0.15408 0.63275,0.323495 1.02777,0.376478 0.39501,0.05298 0.80867,0.20534 0.91925,0.338572 0.11057,0.133232 0.49261,0.24224 0.84898,0.24224 0.35638,0 1.32112,0.22777 2.14387,0.506155 0.82276,0.278385 1.97322,0.611866 2.55659,0.741069 0.58336,0.129202 1.37885,0.376983 1.76776,0.550623 0.38891,0.17364 1.02531,0.319986 1.41422,0.325213 0.38891,0.0052 0.86152,0.126299 1.05025,0.269048 0.18873,0.142749 0.59662,0.259543 0.90643,0.259543 0.30981,0 0.66232,0.119324 0.78336,0.265165 0.13727,0.165407 0.52782,0.265603 1.03811,0.26633 0.51881,7.42e-4 1.01203,0.129637 1.34837,0.352388 0.29821,0.1975 0.83982,0.354762 1.23744,0.359308 l 0.7071,0.0081 -0.53033,0.24256 c -0.29168,0.133408 -0.8883,0.615391 -1.32582,1.071072 -0.43752,0.455682 -1.03414,0.948803 -1.32583,1.095824 -0.29168,0.147022 -0.80875,0.526023 -1.14904,0.842225 -0.3403,0.316202 -0.8896,0.725072 -1.22068,0.9086 -0.33107,0.183527 -1.02022,0.751321 -1.53144,1.261764 -0.51122,0.510443 -1.03584,0.929134 -1.16581,0.930425 -0.12998,0.0013 -0.67385,0.397982 -1.2086,0.881536 -0.53475,0.483554 -1.07346,0.880246 -1.19714,0.881537 -0.12367,0.0013 -0.64934,0.433662 -1.16814,0.960825 -0.51881,0.527162 -1.22384,1.108849 -1.56675,1.292635 -0.3429,0.183786 -0.85138,0.578613 -1.12995,0.877392 -0.27857,0.298779 -0.68253,0.596567 -0.89771,0.66175 -0.21517,0.06518 -0.89258,0.619879 -1.50536,1.23266 -0.61278,0.612779 -1.29437,1.171345 -1.51464,1.241259 -0.22028,0.06991 -0.77298,0.478967 -1.22824,0.909014 -0.45525,0.430046 -0.98973,0.832406 -1.18772,0.894131 -0.198,0.06173 -0.76092,0.500287 -1.25094,0.97458 -0.49002,0.474294 -1.20596,1.03014 -1.59099,1.235213 -0.38503,0.205074 -0.94072,0.641525 -1.23487,0.969893 -0.29415,0.328368 -0.66227,0.597033 -0.81804,0.597033 -0.15578,0 -0.38226,0.119324 -0.50329,0.265165 -0.15588,0.187815 -0.56841,0.265165 -1.41422,0.265165 -0.8458,0 -1.25834,-0.07735 -1.41421,-0.265165 z"
         id="path1812"
         inkscape:connector-curvature="0" />
    </g>
    <path
       transform="scale(0.74999999)"
       inkscape:connector-curvature="0"
       id="path119"
       d="m 175.22066,49.992563 c -4.64289,-0.962595 -10.55726,-3.329189 -17.21475,-6.888365 -1.97375,-1.055192 -5.35864,-3.128383 -6.39426,-3.916381 -0.27712,-0.210859 -1.0221,-0.765923 -1.65551,-1.233475 -6.07497,-4.484222 -12.45886,-11.228192 -16.24088,-17.156927 -0.21465,-0.336501 -0.45159,-0.611819 -0.52652,-0.611819 -0.14689,0 -0.19333,0.0497 -0.90235,0.965581 -2.18268,2.819522 -2.70172,3.47641 -3.21413,4.067775 -0.32224,0.37189 -0.77513,0.930066 -1.00643,1.240392 -1.76202,2.364073 -7.46958,8.020801 -10.01511,9.925909 -0.20832,0.155905 -1.06477,0.814417 -1.90322,1.46336 -2.64766,2.04922 -5.58438,3.839771 -9.74621,5.94238 -5.78689,2.923601 -10.277163,4.668654 -15.374356,5.974925 -1.789986,0.458725 -1.343941,0.133088 0.847616,-0.618806 1.224367,-0.420064 2.647197,-0.927208 3.161845,-1.126989 0.514648,-0.199782 1.680703,-0.654352 2.591233,-1.010157 2.996372,-1.170884 7.850892,-3.66823 10.241312,-5.268514 6.17782,-4.135798 8.63728,-6.136267 13.29862,-10.816839 3.51072,-3.525201 7.40968,-8.294684 9.15612,-11.200412 0.778,-1.294435 1.70977,-3.538711 1.70977,-4.118189 0,-0.260873 -0.34418,-0.907347 -0.97665,-1.834464 -1.86637,-2.735835 -2.66704,-3.8819417 -3.08325,-4.4134481 -0.4706,-0.6009656 -0.46073,-0.6488323 0.3794,-1.840755 0.62594,-0.8880289 3.3639,-5.3227387 4.02175,-6.5140722 0.29512,-0.53444183 0.55905,-0.97171242 0.58651,-0.97171242 0.0275,0 0.2662,0.34009935 0.53054,0.75577633 0.26434,0.41567699 0.5369,0.82055719 0.6057,0.89973369 0.0688,0.079177 0.45849,0.6752043 0.86599,1.3245058 0.40751,0.6493017 1.34014,2.1156174 2.07253,3.2584794 0.73238,1.142862 1.3316,2.1576476 1.3316,2.2550793 0,0.157587 -0.67427,1.2711262 -3.41131,5.6337042 l -0.77991,1.243091 0.22208,0.857002 c 0.3267,1.260786 1.16744,3.281362 1.84349,4.430515 0.68418,1.162981 1.237,1.924985 3.13286,4.318313 0.75245,0.949894 1.55644,1.986387 1.78665,2.303318 0.6154,0.847214 4.97001,5.233453 6.63535,6.683539 1.98081,1.724781 4.31674,3.598864 5.33752,4.282217 3.67065,2.457285 4.94111,3.28218 6.32303,4.105459 2.15986,1.28674 8.05062,4.214667 10.50889,5.223314 1.10847,0.454815 2.14496,0.884211 2.30332,0.954216 0.15835,0.07001 1.29202,0.480478 2.51925,0.912163 2.34936,0.826395 2.44127,0.937179 0.43187,0.520577 z"
       style="fill:#fcb63c;fill-opacity:1;stroke-width:0.14395739" />
    <path
       transform="scale(0.74999999)"
       inkscape:connector-curvature="0"
       id="path121"
       d="m 79.201081,52.77718 c -0.356294,-0.277372 -1.328007,-1.040361 -2.159361,-1.695531 -0.831354,-0.65517 -2.018344,-1.564731 -2.637757,-2.021247 -0.619413,-0.456516 -1.105269,-0.84866 -1.079681,-0.871431 0.02559,-0.02277 1.180189,-0.375347 2.565779,-0.783504 1.38559,-0.408156 3.05536,-0.908009 3.710601,-1.110783 0.65524,-0.202774 1.289402,-0.331053 1.409249,-0.285063 0.119846,0.04599 1.25389,0.781066 2.520097,1.633504 1.266206,0.852437 2.769812,1.840187 3.341345,2.194999 0.787323,0.488776 0.969378,0.658182 0.751236,0.699042 -0.158353,0.02966 -1.227237,0.409683 -2.375297,0.844491 -2.087585,0.790639 -4.775649,1.748909 -5.182466,1.847502 -0.118765,0.02878 -0.50745,-0.174607 -0.863745,-0.451979 z"
       style="fill:#fcb63c;fill-opacity:1;stroke-width:0.14395739" />
    <path
       transform="scale(0.74999999)"
       inkscape:connector-curvature="0"
       id="path123"
       d="m 183.28228,52.150064 c -1.78147,-0.621915 -3.487,-1.220419 -3.79005,-1.33001 l -0.55101,-0.199256 3.19083,-2.207552 c 1.75496,-1.214153 3.26614,-2.215604 3.35818,-2.225446 0.34171,-0.03654 7.84986,2.128058 7.77901,2.242689 -0.0405,0.06552 -0.7008,0.601387 -1.46734,1.190817 -0.76655,0.589429 -2.1377,1.65732 -3.047,2.37309 -0.9093,0.715771 -1.78384,1.298031 -1.94343,1.293911 -0.15958,-0.0041 -1.74772,-0.516328 -3.52919,-1.138243 z"
       style="fill:#fcb63c;fill-opacity:1;stroke-width:0.14395739" />
  </g>
</svg>
